<?xml version="1.0" encoding="UTF-8" standalone="no"?>
<!DOCTYPE svg PUBLIC "-//W3C//DTD SVG 1.1//EN" "http://www.w3.org/Graphics/SVG/1.1/DTD/svg11.dtd">
<!-- Generated by Microsoft Visio, SVG Export reboot.svg Page-1 -->
<svg xmlns="http://www.w3.org/2000/svg" xmlns:xlink="http://www.w3.org/1999/xlink" xmlns:ev="http://www.w3.org/2001/xml-events"
		xmlns:v="http://schemas.microsoft.com/visio/2003/SVGExtensions/" width="2.62761in" height="3.98172in"
		viewBox="0 0 189.188 286.684" xml:space="preserve" color-interpolation-filters="sRGB" class="st14">
	<v:documentProperties v:langID="1033" v:metric="true" v:viewMarkup="false"/>

	<style type="text/css">
	<![CDATA[
		.st1 {fill:#4672c4;stroke:#c7c8c8;stroke-width:0.25}
		.st2 {stroke:#4672c4;stroke-dasharray:7,5;stroke-linecap:round;stroke-linejoin:round;stroke-width:1}
		.st3 {fill:#feffff;font-family:Calibri;font-size:0.666664em;font-weight:bold}
		.st4 {marker-end:url(#mrkr4-32);stroke:#4672c4;stroke-linecap:round;stroke-linejoin:round;stroke-width:1}
		.st5 {fill:#4672c4;fill-opacity:1;stroke:#4672c4;stroke-opacity:1;stroke-width:0.23584905660377}
		.st6 {fill:#ffffff;stroke:none;stroke-linecap:butt;stroke-width:7.2}
		.st7 {fill:#3d64ac;font-family:Calibri;font-size:0.666664em}
		.st8 {fill:#718bcc;stroke:#718bcc;stroke-linecap:round;stroke-linejoin:round;stroke-width:0.25}
		.st9 {fill:#4672c4}
		.st10 {stroke:#4672c4;stroke-linecap:round;stroke-linejoin:round;stroke-width:1}
		.st11 {fill:none;stroke:none;stroke-width:0.25}
		.st12 {fill:#4672c4;font-family:Calibri;font-size:0.666664em}
		.st13 {font-size:1em}
		.st14 {fill:none;fill-rule:evenodd;font-size:12px;overflow:visible;stroke-linecap:square;stroke-miterlimit:3}
	]]>
	</style>

	<defs id="Markers">
		<g id="lend4">
			<path d="M 2 1 L 0 0 L 2 -1 L 2 1 " style="stroke:none"/>
		</g>
		<marker id="mrkr4-32" class="st5" v:arrowType="4" v:arrowSize="3" v:setback="8.48" refX="-8.48" orient="auto"
				markerUnits="strokeWidth" overflow="visible">
			<use xlink:href="#lend4" transform="scale(-4.24,-4.24) "/>
		</marker>
	</defs>
	<g v:mID="0" v:index="1" v:groupContext="foregroundPage">
		<title>Page-1</title>
		<v:pageProperties v:drawingScale="0.0393701" v:pageScale="0.0393701" v:drawingUnits="24" v:shadowOffsetX="8.50394"
				v:shadowOffsetY="-8.50394"/>
		<v:layer v:name="Connector" v:index="0"/>
		<v:layer v:name="Common Icons" v:index="1"/>
		<g id="group1-1" transform="translate(0.25,-231.109)" v:mID="1" v:groupContext="group">
			<v:userDefs>
				<v:ud v:nameU="visVersion" v:prompt="" v:val="VT0(15):26"/>
				<v:ud v:nameU="ShowActor" v:prompt="" v:val="VT0(0):5"/>
				<v:ud v:nameU="ShowDestruction" v:prompt="" v:val="VT0(0):5"/>
			</v:userDefs>
			<title>Object lifeline</title>
			<desc>GNMI client</desc>
			<g id="shape2-2" v:mID="2" v:groupContext="shape" transform="translate(8.50394,0)">
				<title>Sheet.2</title>
				<rect x="0" y="261.172" width="51.0236" height="25.5118" class="st1"/>
			</g>
			<g id="shape3-4" v:mID="3" v:groupContext="shape" transform="translate(25.5118,-29.0551)">
				<title>Sheet.3</title>
				<path d="M8.5 286.68 a0 0 0 1 1 0 0 a0 0 0 1 1 0 0 Z" class="st1"/>
			</g>
			<g id="shape4-6" v:mID="4" v:groupContext="shape" transform="translate(22.6772,231.109)">
				<title>Sheet.4</title>
			</g>
			<g id="shape5-8" v:mID="5" v:groupContext="shape" transform="translate(320.7,286.684) rotate(90)">
				<title>Sheet.5</title>
				<path d="M0 286.68 L213.49 286.68" class="st2"/>
			</g>
			<g id="shape1-11" v:mID="1" v:groupContext="groupContent">
				<v:textBlock v:margins="rect(4,4,4,4)" v:tabSpace="42.5197"/>
				<v:textRect cx="34.0157" cy="273.928" width="68.04" height="25.5118"/>
				<rect x="0" y="261.172" width="68.0315" height="25.5118" class="st1"/>
				<text x="14.18" y="276.33" class="st3" v:langID="2052"><v:paragraph v:horizAlign="1"/><v:tabList/>GNMI client</text>			</g>
		</g>
		<g id="group6-14" transform="translate(120.906,-231.109)" v:mID="6" v:groupContext="group">
			<v:userDefs>
				<v:ud v:nameU="visVersion" v:prompt="" v:val="VT0(15):26"/>
				<v:ud v:nameU="ShowActor" v:prompt="" v:val="VT0(0):5"/>
				<v:ud v:nameU="ShowDestruction" v:prompt="" v:val="VT0(0):5"/>
			</v:userDefs>
			<title>Object lifeline.6</title>
			<desc>GNMI server</desc>
			<g id="shape7-15" v:mID="7" v:groupContext="shape" transform="translate(8.50394,0)">
				<title>Sheet.7</title>
				<rect x="0" y="261.172" width="51.0236" height="25.5118" class="st1"/>
			</g>
			<g id="shape8-17" v:mID="8" v:groupContext="shape" transform="translate(25.5118,-29.0551)">
				<title>Sheet.8</title>
				<path d="M8.5 286.68 a0 0 0 1 1 0 0 a0 0 0 1 1 0 0 Z" class="st1"/>
			</g>
			<g id="shape9-19" v:mID="9" v:groupContext="shape" transform="translate(22.6772,231.109)">
				<title>Sheet.9</title>
			</g>
			<g id="shape10-21" v:mID="10" v:groupContext="shape" transform="translate(320.7,286.684) rotate(90)">
				<title>Sheet.10</title>
				<path d="M0 286.68 L213.49 286.68" class="st2"/>
			</g>
			<g id="shape6-24" v:mID="6" v:groupContext="groupContent">
				<v:textBlock v:margins="rect(4,4,4,4)" v:tabSpace="42.5197"/>
				<v:textRect cx="34.0157" cy="273.928" width="68.04" height="25.5118"/>
				<rect x="0" y="261.172" width="68.0315" height="25.5118" class="st1"/>
				<text x="13.01" y="276.33" class="st3" v:langID="2052"><v:paragraph v:horizAlign="1"/><v:tabList/>GNMI server</text>			</g>
		</g>
		<g id="shape12-27" v:mID="12" v:groupContext="shape" v:layerMember="0" transform="translate(34.6627,-213.834)">
			<title>Message</title>
			<desc>Write DASH_RESET_STATUS</desc>
			<v:userDefs>
				<v:ud v:nameU="IsReturn" v:prompt="" v:val="VT0(0):5"/>
				<v:ud v:nameU="IsAsync" v:prompt="" v:val="VT0(0):5"/>
				<v:ud v:nameU="IsSelfMessage" v:prompt="" v:val="VT0(0):5"/>
				<v:ud v:nameU="visVersion" v:prompt="" v:val="VT0(15):26"/>
			</v:userDefs>
			<v:textBlock v:margins="rect(4,4,4,4)" v:tabSpace="42.5197"/>
			<v:textRect cx="60.2564" cy="279.597" width="100.85" height="17.6036"/>
			<path d="M0 279.6 L112.03 279.6" class="st4"/>
			<rect v:rectContext="textBkgnd" x="14.7412" y="274.798" width="91.0308" height="9.59985" class="st6"/>
			<text x="14.74" y="282" class="st7" v:langID="1033"><v:paragraph v:horizAlign="1"/><v:tabList/>Write DASH_RESET_STATUS</text>		</g>
		<g id="group16-35" transform="translate(22.7657,-262.559)" v:mID="16" v:groupContext="group" v:layerMember="1">
			<v:userDefs>
				<v:ud v:nameU="visVersion" v:prompt="" v:val="VT0(17):26"/>
				<v:ud v:nameU="visAltText" v:prompt="" v:val="VT4(User)"/>
				<v:ud v:nameU="visAltDescription" v:prompt="" v:val="VT4(User Icon.)"/>
				<v:ud v:nameU="Font" v:prompt="" v:val="VT0(243):26"/>
			</v:userDefs>
			<title>User</title>
			<g id="group17-36" v:mID="17" v:groupContext="group" v:layerMember="1">
				<title>Sheet.17</title>
				<g id="shape18-37" v:mID="18" v:groupContext="shape" v:layerMember="1" transform="translate(5.75,-12.7059)">
					<title>Sheet.18</title>
					<ellipse cx="5.75" cy="281.037" rx="5.75" ry="5.64706" class="st8"/>
				</g>
				<g id="shape19-39" v:mID="19" v:groupContext="shape" v:layerMember="1">
					<title>Sheet.19</title>
					<path d="M23 286.68 L23 281.04 C23 280.19 22.57 279.34 21.85 278.78 C20.27 277.51 18.26 276.66 16.24 276.1 C14.81
								 275.67 13.22 275.39 11.5 275.39 C9.92 275.39 8.34 275.67 6.76 276.1 C4.74 276.66 2.73 277.65 1.15
								 278.78 C0.43 279.34 0 280.19 0 281.04 L0 286.68 L23 286.68 Z" class="st8"/>
				</g>
			</g>
		</g>
		<g id="group20-41" transform="translate(142.922,-262.559)" v:mID="20" v:groupContext="group" v:layerMember="1">
			<v:userDefs>
				<v:ud v:nameU="visVersion" v:prompt="" v:val="VT0(17):26"/>
				<v:ud v:nameU="visAltText" v:prompt="" v:val="VT4(Script)"/>
				<v:ud v:nameU="visAltDescription" v:prompt="" v:val="VT4(Script Icon.)"/>
				<v:ud v:nameU="Font" v:prompt="" v:val="VT0(243):26"/>
			</v:userDefs>
			<title>Script</title>
			<g id="shape21-42" v:mID="21" v:groupContext="shape" v:layerMember="1">
				<title>Sheet.21</title>
				<path d="M21.88 283.86 C21.88 284.25 21.56 284.57 21.18 284.57 C20.79 284.57 20.47 284.25 20.47 283.86 L20.47 266.92
							 L21.88 266.92 L21.88 283.86 ZM2.82 284.57 C2.44 284.57 2.12 284.25 2.12 283.86 L2.12 264.8 L18.35 264.8
							 L18.35 283.86 C18.35 284.11 18.39 284.35 18.46 284.57 L2.82 284.57 ZM20.47 264.8 L20.47 262.68 L0 262.68
							 L0 283.86 C0 285.41 1.27 286.68 2.82 286.68 L21.18 286.68 C22.73 286.68 24 285.41 24 283.86 L24 264.8
							 L20.47 264.8 Z" class="st8"/>
			</g>
			<g id="shape22-44" v:mID="22" v:groupContext="shape" v:layerMember="1" transform="translate(3.52941,-18.3529)">
				<title>Sheet.22</title>
				<rect x="0" y="285.272" width="13.4118" height="1.41176" class="st8"/>
			</g>
			<g id="shape23-46" v:mID="23" v:groupContext="shape" v:layerMember="1" transform="translate(10.9412,-15.5294)">
				<title>Sheet.23</title>
				<rect x="0" y="285.272" width="6" height="1.41176" class="st8"/>
			</g>
			<g id="shape24-48" v:mID="24" v:groupContext="shape" v:layerMember="1" transform="translate(10.9412,-12.7059)">
				<title>Sheet.24</title>
				<rect x="0" y="285.272" width="6" height="1.41176" class="st8"/>
			</g>
			<g id="shape25-50" v:mID="25" v:groupContext="shape" v:layerMember="1" transform="translate(3.52941,-12.7059)">
				<title>Sheet.25</title>
				<rect x="0" y="282.449" width="6" height="4.23529" class="st8"/>
			</g>
			<g id="shape26-52" v:mID="26" v:groupContext="shape" v:layerMember="1" transform="translate(3.52941,-9.88235)">
				<title>Sheet.26</title>
				<rect x="0" y="285.272" width="13.4118" height="1.41176" class="st8"/>
			</g>
			<g id="shape27-54" v:mID="27" v:groupContext="shape" v:layerMember="1" transform="translate(10.9412,-4.23529)">
				<title>Sheet.27</title>
				<rect x="0" y="282.449" width="6" height="4.23529" class="st8"/>
			</g>
			<g id="shape28-56" v:mID="28" v:groupContext="shape" v:layerMember="1" transform="translate(3.52941,-7.05882)">
				<title>Sheet.28</title>
				<rect x="0" y="285.272" width="6" height="1.41176" class="st8"/>
			</g>
			<g id="shape29-58" v:mID="29" v:groupContext="shape" v:layerMember="1" transform="translate(3.52941,-4.23529)">
				<title>Sheet.29</title>
				<rect x="0" y="285.272" width="6" height="1.41176" class="st8"/>
			</g>
		</g>
		<g id="shape30-60" v:mID="30" v:groupContext="shape" v:layerMember="0" transform="translate(34.2657,-188.022)">
			<title>Message.30</title>
			<desc>Write DASH configurations</desc>
			<v:userDefs>
				<v:ud v:nameU="IsReturn" v:prompt="" v:val="VT0(0):5"/>
				<v:ud v:nameU="IsAsync" v:prompt="" v:val="VT0(0):5"/>
				<v:ud v:nameU="IsSelfMessage" v:prompt="" v:val="VT0(0):5"/>
				<v:ud v:nameU="visVersion" v:prompt="" v:val="VT0(15):26"/>
			</v:userDefs>
			<v:textBlock v:margins="rect(4,4,4,4)" v:tabSpace="42.5197"/>
			<v:textRect cx="60.3282" cy="279.597" width="96.78" height="17.6036"/>
			<path d="M0 279.6 L112.18 279.6" class="st4"/>
			<rect v:rectContext="textBkgnd" x="16.8444" y="274.798" width="86.9678" height="9.59985" class="st6"/>
			<text x="16.84" y="282" class="st7" v:langID="1033"><v:paragraph v:horizAlign="1"/><v:tabList/>Write DASH configurations</text>		</g>
		<g id="shape37-67" v:mID="37" v:groupContext="shape" v:layerMember="0" transform="translate(34.2657,-159.109)">
			<title>Single arrowhead</title>
			<desc>Read DASH_RESET_STATUS table</desc>
			<v:userDefs>
				<v:ud v:nameU="Scale" v:val="VT0(1):26"/>
				<v:ud v:nameU="AntiScale" v:val="VT0(1):26"/>
				<v:ud v:nameU="visVersion" v:val="VT0(15):26"/>
			</v:userDefs>
			<v:textBlock v:margins="rect(4,4,4,4)" v:tabSpace="42.5197"/>
			<v:textRect cx="60.3282" cy="286.684" width="120.66" height="0"/>
			<path d="M5.67 283.85 L5.67 289.52 L0 286.68 L5.67 283.85 ZM114.99 283.85 L114.99 289.52 L120.66 286.68 L114.99 283.85
						 Z" class="st9"/>
			<path d="M5.67 283.85 L5.67 289.52 L0 286.68 L5.67 283.85" class="st10"/>
			<path d="M114.99 283.85 L114.99 289.52 L120.66 286.68 L114.99 283.85" class="st10"/>
			<path d="M5.67 286.68 L114.99 286.68" class="st10"/>
			<rect v:rectContext="textBkgnd" x="6.66458" y="281.884" width="107.327" height="9.59985" class="st6"/>
			<text x="6.66" y="289.08" class="st7" v:langID="1033"><v:paragraph v:horizAlign="1"/><v:tabList/>Read DASH_RESET_STATUS table</text>		</g>
		<g id="shape38-74" v:mID="38" v:groupContext="shape" v:layerMember="0" transform="translate(34.2657,-141.109)">
			<title>Single arrowhead.38</title>
			<desc>Read DASH_RESET_STATUS table</desc>
			<v:userDefs>
				<v:ud v:nameU="Scale" v:val="VT0(1):26"/>
				<v:ud v:nameU="AntiScale" v:val="VT0(1):26"/>
				<v:ud v:nameU="visVersion" v:val="VT0(15):26"/>
			</v:userDefs>
			<v:textBlock v:margins="rect(4,4,4,4)" v:tabSpace="42.5197"/>
			<v:textRect cx="60.3282" cy="286.684" width="120.66" height="0"/>
			<path d="M5.67 283.85 L5.67 289.52 L0 286.68 L5.67 283.85 ZM114.99 283.85 L114.99 289.52 L120.66 286.68 L114.99 283.85
						 Z" class="st9"/>
			<path d="M5.67 283.85 L5.67 289.52 L0 286.68 L5.67 283.85" class="st10"/>
			<path d="M114.99 283.85 L114.99 289.52 L120.66 286.68 L114.99 283.85" class="st10"/>
			<path d="M5.67 286.68 L114.99 286.68" class="st10"/>
			<rect v:rectContext="textBkgnd" x="6.66458" y="281.884" width="107.327" height="9.59985" class="st6"/>
			<text x="6.66" y="289.08" class="st7" v:langID="1033"><v:paragraph v:horizAlign="1"/><v:tabList/>Read DASH_RESET_STATUS table</text>		</g>
		<g id="shape39-81" v:mID="39" v:groupContext="shape" v:layerMember="0" transform="translate(34.2657,-123.109)">
			<title>Single arrowhead.39</title>
			<desc>Read DASH_RESET_STATUS table</desc>
			<v:userDefs>
				<v:ud v:nameU="Scale" v:val="VT0(1):26"/>
				<v:ud v:nameU="AntiScale" v:val="VT0(1):26"/>
				<v:ud v:nameU="visVersion" v:val="VT0(15):26"/>
			</v:userDefs>
			<v:textBlock v:margins="rect(4,4,4,4)" v:tabSpace="42.5197"/>
			<v:textRect cx="60.3282" cy="286.684" width="120.66" height="0"/>
			<path d="M5.67 283.85 L5.67 289.52 L0 286.68 L5.67 283.85 ZM114.99 283.85 L114.99 289.52 L120.66 286.68 L114.99 283.85
						 Z" class="st9"/>
			<path d="M5.67 283.85 L5.67 289.52 L0 286.68 L5.67 283.85" class="st10"/>
			<path d="M114.99 283.85 L114.99 289.52 L120.66 286.68 L114.99 283.85" class="st10"/>
			<path d="M5.67 286.68 L114.99 286.68" class="st10"/>
			<rect v:rectContext="textBkgnd" x="6.66458" y="281.884" width="107.327" height="9.59985" class="st6"/>
			<text x="6.66" y="289.08" class="st7" v:langID="1033"><v:paragraph v:horizAlign="1"/><v:tabList/>Read DASH_RESET_STATUS table</text>		</g>
		<g id="shape40-88" v:mID="40" v:groupContext="shape" v:layerMember="0" transform="translate(27.1791,-105.109)">
			<title>Self Message</title>
			<v:userDefs>
				<v:ud v:nameU="IsReturn" v:prompt="" v:val="VT0(0):5"/>
				<v:ud v:nameU="IsAsync" v:prompt="" v:val="VT0(0):26"/>
				<v:ud v:nameU="IsSelfMessage" v:prompt="" v:val="VT0(1):5"/>
				<v:ud v:nameU="visVersion" v:prompt="" v:val="VT0(15):26"/>
			</v:userDefs>
			<path d="M7.09 286.68 L25.09 286.68 L25.09 322.68 L15.57 322.68" class="st4"/>
		</g>
		<g id="shape41-93" v:mID="41" v:groupContext="shape" transform="translate(46.594,-81.8082)">
			<title>Sheet.41</title>
			<desc>If DASH_RESET_STATUS table is lost, GNMI client needs to repr...</desc>
			<v:textBlock v:margins="rect(0,0,0,0)" v:tabSpace="42.5197"/>
			<v:textRect cx="48" cy="282.684" width="96.01" height="8"/>
			<rect x="0" y="278.684" width="96" height="8" class="st11"/>
			<text x="0.29" y="275.48" class="st12" v:langID="1033"><v:paragraph v:horizAlign="1"/><v:tabList/>If DASH_RESET_STATUS table <tspan
						x="2.38" dy="1.2em" class="st13">is lost, GNMI client needs to </tspan><tspan x="30.62" dy="1.2em"
						class="st13">reprogram</tspan></text>		</g>
		<g id="shape45-98" v:mID="45" v:groupContext="shape" v:layerMember="0" transform="translate(34.2657,-44.0223)">
			<title>Message.45</title>
			<desc>Write DASH_RESET_STATUS</desc>
			<v:userDefs>
				<v:ud v:nameU="IsReturn" v:prompt="" v:val="VT0(0):5"/>
				<v:ud v:nameU="IsAsync" v:prompt="" v:val="VT0(0):5"/>
				<v:ud v:nameU="IsSelfMessage" v:prompt="" v:val="VT0(0):5"/>
				<v:ud v:nameU="visVersion" v:prompt="" v:val="VT0(15):26"/>
			</v:userDefs>
			<v:textBlock v:margins="rect(4,4,4,4)" v:tabSpace="42.5197"/>
			<v:textRect cx="60.3282" cy="279.597" width="100.85" height="17.6036"/>
			<path d="M0 279.6 L112.18 279.6" class="st4"/>
			<rect v:rectContext="textBkgnd" x="14.8129" y="274.798" width="91.0308" height="9.59985" class="st6"/>
			<text x="14.81" y="282" class="st7" v:langID="1033"><v:paragraph v:horizAlign="1"/><v:tabList/>Write DASH_RESET_STATUS</text>		</g>
		<g id="shape48-105" v:mID="48" v:groupContext="shape" v:layerMember="0" transform="translate(34.2657,-26.0223)">
			<title>Message.48</title>
			<desc>Write DASH configurations</desc>
			<v:userDefs>
				<v:ud v:nameU="IsReturn" v:prompt="" v:val="VT0(0):5"/>
				<v:ud v:nameU="IsAsync" v:prompt="" v:val="VT0(0):5"/>
				<v:ud v:nameU="IsSelfMessage" v:prompt="" v:val="VT0(0):5"/>
				<v:ud v:nameU="visVersion" v:prompt="" v:val="VT0(15):26"/>
			</v:userDefs>
			<v:textBlock v:margins="rect(4,4,4,4)" v:tabSpace="42.5197"/>
			<v:textRect cx="60.3282" cy="279.597" width="96.78" height="17.6036"/>
			<path d="M0 279.6 L112.18 279.6" class="st4"/>
			<rect v:rectContext="textBkgnd" x="16.8444" y="274.798" width="86.9678" height="9.59985" class="st6"/>
			<text x="16.84" y="282" class="st7" v:langID="1033"><v:paragraph v:horizAlign="1"/><v:tabList/>Write DASH configurations</text>		</g>
	</g>
</svg>
