<?xml version="1.0" encoding="UTF-8" standalone="no"?>
<!DOCTYPE svg PUBLIC "-//W3C//DTD SVG 1.1//EN" "http://www.w3.org/Graphics/SVG/1.1/DTD/svg11.dtd">
<!-- Generated by Microsoft Visio, SVG Export get_flow.svg Page-1 -->
<svg xmlns="http://www.w3.org/2000/svg" xmlns:xlink="http://www.w3.org/1999/xlink" xmlns:ev="http://www.w3.org/2001/xml-events"
		xmlns:v="http://schemas.microsoft.com/visio/2003/SVGExtensions/" width="7.65496in" height="2.99353in"
		viewBox="0 0 551.157 215.534" xml:space="preserve" color-interpolation-filters="sRGB" class="st12">
	<v:documentProperties v:langID="1033" v:metric="true" v:viewMarkup="false"/>

	<style type="text/css">
	<![CDATA[
		.st1 {fill:#4672c4;stroke:#c7c8c8;stroke-width:0.25}
		.st2 {stroke:#4672c4;stroke-dasharray:7,5;stroke-linecap:round;stroke-linejoin:round;stroke-width:1}
		.st3 {fill:#feffff;font-family:Calibri;font-size:0.666664em;font-weight:bold}
		.st4 {fill:#4672c4;stroke:#4672c4;stroke-linecap:round;stroke-linejoin:round;stroke-width:1}
		.st5 {marker-end:url(#mrkr4-34);stroke:#4672c4;stroke-linecap:round;stroke-linejoin:round;stroke-width:1}
		.st6 {fill:#4672c4;fill-opacity:1;stroke:#4672c4;stroke-opacity:1;stroke-width:0.23584905660377}
		.st7 {fill:#ffffff;stroke:none;stroke-linecap:butt;stroke-width:7.2}
		.st8 {fill:#3d64ac;font-family:Calibri;font-size:0.666664em}
		.st9 {font-size:1em}
		.st10 {marker-end:url(#mrkr3-43);stroke:#4672c4;stroke-dasharray:7,5;stroke-linecap:round;stroke-linejoin:round;stroke-width:1}
		.st11 {fill:#718bcc;stroke:#718bcc;stroke-linecap:round;stroke-linejoin:round;stroke-width:0.25}
		.st12 {fill:none;fill-rule:evenodd;font-size:12px;overflow:visible;stroke-linecap:square;stroke-miterlimit:3}
	]]>
	</style>

	<defs id="Markers">
		<g id="lend4">
			<path d="M 2 1 L 0 0 L 2 -1 L 2 1 " style="stroke:none"/>
		</g>
		<marker id="mrkr4-34" class="st6" v:arrowType="4" v:arrowSize="3" v:setback="8.48" refX="-8.48" orient="auto"
				markerUnits="strokeWidth" overflow="visible">
			<use xlink:href="#lend4" transform="scale(-4.24,-4.24) "/>
		</marker>
		<g id="lend3">
			<path d="M 2 1 L 0 0 L 2 -1 " style="stroke-linecap:round;stroke-linejoin:round;fill:none"/>
		</g>
		<marker id="mrkr3-43" class="st6" v:arrowType="3" v:arrowSize="3" orient="auto" markerUnits="strokeWidth"
				overflow="visible">
			<use xlink:href="#lend3" transform="scale(-4.24,-4.24) "/>
		</marker>
	</defs>
	<g v:mID="0" v:index="1" v:groupContext="foregroundPage">
		<title>Page-1</title>
		<v:pageProperties v:drawingScale="0.0393701" v:pageScale="0.0393701" v:drawingUnits="24" v:shadowOffsetX="8.50394"
				v:shadowOffsetY="-8.50394"/>
		<v:layer v:name="Connector" v:index="0"/>
		<v:layer v:name="Common Icons" v:index="1"/>
		<g id="group1-1" transform="translate(0.25,-159.959)" v:mID="1" v:groupContext="group">
			<v:userDefs>
				<v:ud v:nameU="visVersion" v:prompt="" v:val="VT0(15):26"/>
				<v:ud v:nameU="ShowActor" v:prompt="" v:val="VT0(0):5"/>
				<v:ud v:nameU="ShowDestruction" v:prompt="" v:val="VT0(0):5"/>
			</v:userDefs>
			<title>Object lifeline</title>
			<desc>GNMI client</desc>
			<g id="shape2-2" v:mID="2" v:groupContext="shape" transform="translate(8.50394,0)">
				<title>Sheet.2</title>
				<rect x="0" y="190.023" width="51.0236" height="25.5118" class="st1"/>
			</g>
			<g id="shape3-4" v:mID="3" v:groupContext="shape" transform="translate(25.5118,-29.0551)">
				<title>Sheet.3</title>
				<path d="M8.5 215.53 a0 0 0 1 1 0 0 a0 0 0 1 1 0 0 Z" class="st1"/>
			</g>
			<g id="shape4-6" v:mID="4" v:groupContext="shape" transform="translate(22.6772,158.258)">
				<title>Sheet.4</title>
			</g>
			<g id="shape5-8" v:mID="5" v:groupContext="shape" transform="translate(249.55,215.534) rotate(90)">
				<title>Sheet.5</title>
				<path d="M0 215.53 L140.64 215.53" class="st2"/>
			</g>
			<g id="shape1-11" v:mID="1" v:groupContext="groupContent">
				<v:textBlock v:margins="rect(4,4,4,4)" v:tabSpace="42.5197"/>
				<v:textRect cx="34.0157" cy="202.779" width="68.04" height="25.5118"/>
				<rect x="0" y="190.023" width="68.0315" height="25.5118" class="st1"/>
				<text x="14.18" y="205.18" class="st3" v:langID="2052"><v:paragraph v:horizAlign="1"/><v:tabList/>GNMI client</text>			</g>
		</g>
		<g id="group6-14" transform="translate(120.906,-159.959)" v:mID="6" v:groupContext="group">
			<v:userDefs>
				<v:ud v:nameU="visVersion" v:prompt="" v:val="VT0(15):26"/>
				<v:ud v:nameU="ShowActor" v:prompt="" v:val="VT0(0):5"/>
				<v:ud v:nameU="ShowDestruction" v:prompt="" v:val="VT0(0):5"/>
			</v:userDefs>
			<title>Object lifeline.6</title>
			<desc>GNMI server</desc>
			<g id="shape7-15" v:mID="7" v:groupContext="shape" transform="translate(8.50394,0)">
				<title>Sheet.7</title>
				<rect x="0" y="190.023" width="51.0236" height="25.5118" class="st1"/>
			</g>
			<g id="shape8-17" v:mID="8" v:groupContext="shape" transform="translate(25.5118,-29.0551)">
				<title>Sheet.8</title>
				<path d="M8.5 215.53 a0 0 0 1 1 0 0 a0 0 0 1 1 0 0 Z" class="st1"/>
			</g>
			<g id="shape9-19" v:mID="9" v:groupContext="shape" transform="translate(22.6772,158.258)">
				<title>Sheet.9</title>
			</g>
			<g id="shape10-21" v:mID="10" v:groupContext="shape" transform="translate(249.55,215.534) rotate(90)">
				<title>Sheet.10</title>
				<path d="M0 215.53 L140.64 215.53" class="st2"/>
			</g>
			<g id="shape6-24" v:mID="6" v:groupContext="groupContent">
				<v:textBlock v:margins="rect(4,4,4,4)" v:tabSpace="42.5197"/>
				<v:textRect cx="34.0157" cy="202.779" width="68.04" height="25.5118"/>
				<rect x="0" y="190.023" width="68.0315" height="25.5118" class="st1"/>
				<text x="13.01" y="205.18" class="st3" v:langID="2052"><v:paragraph v:horizAlign="1"/><v:tabList/>GNMI server</text>			</g>
		</g>
		<g id="shape11-27" v:mID="11" v:groupContext="shape" transform="translate(-56.3601,181.842) rotate(-90.0724)">
			<title>Activation</title>
			<v:userDefs>
				<v:ud v:nameU="visVersion" v:prompt="" v:val="VT0(15):26"/>
			</v:userDefs>
			<rect x="0" y="207.031" width="115.381" height="8.50394" class="st4"/>
		</g>
		<g id="shape12-29" v:mID="12" v:groupContext="shape" v:layerMember="0" transform="translate(34.6627,-142.684)">
			<title>Message</title>
			<desc>GetRequest</desc>
			<v:userDefs>
				<v:ud v:nameU="IsReturn" v:prompt="" v:val="VT0(0):5"/>
				<v:ud v:nameU="IsAsync" v:prompt="" v:val="VT0(0):5"/>
				<v:ud v:nameU="IsSelfMessage" v:prompt="" v:val="VT0(0):5"/>
				<v:ud v:nameU="visVersion" v:prompt="" v:val="VT0(15):26"/>
			</v:userDefs>
			<v:textBlock v:margins="rect(4,4,4,4)" v:tabSpace="42.5197"/>
			<v:textRect cx="58.0578" cy="208.448" width="48.04" height="17.6036"/>
			<path d="M0 208.45 L107.64 208.45" class="st5"/>
			<rect v:rectContext="textBkgnd" x="38.945" y="203.648" width="38.2258" height="9.59985" class="st7"/>
			<text x="38.95" y="210.85" class="st8" v:langID="1033"><v:paragraph v:horizAlign="1"/><v:tabList/>G<tspan class="st9"
						v:langID="2052">et</tspan>Request</text>		</g>
		<g id="shape13-38" v:mID="13" v:groupContext="shape" v:layerMember="0" transform="translate(152.754,-29.9908)">
			<title>Return Message</title>
			<desc>GetResponse</desc>
			<v:userDefs>
				<v:ud v:nameU="IsReturn" v:prompt="" v:val="VT0(1):5"/>
				<v:ud v:nameU="IsAsync" v:prompt="" v:val="VT0(0):5"/>
				<v:ud v:nameU="IsSelfMessage" v:prompt="" v:val="VT0(0):5"/>
				<v:ud v:nameU="visVersion" v:prompt="" v:val="VT0(15):26"/>
			</v:userDefs>
			<v:textBlock v:margins="rect(4,4,4,4)" v:tabSpace="42.5197"/>
			<v:textRect cx="-59.2442" cy="208.448" width="52.71" height="17.6036"/>
			<path d="M0 208.45 L-118.49 208.45" class="st10"/>
			<rect v:rectContext="textBkgnd" x="-80.691" y="203.648" width="42.8939" height="9.59985" class="st7"/>
			<text x="-80.69" y="210.85" class="st8" v:langID="1033"><v:paragraph v:horizAlign="1"/><v:tabList/>G<tspan class="st9"
						v:langID="2052">et</tspan>Re<tspan class="st9" v:langID="2052">sponse</tspan></text>		</g>
		<g id="group16-48" transform="translate(22.7657,-191.409)" v:mID="16" v:groupContext="group" v:layerMember="1">
			<v:userDefs>
				<v:ud v:nameU="visVersion" v:prompt="" v:val="VT0(17):26"/>
				<v:ud v:nameU="visAltText" v:prompt="" v:val="VT4(User)"/>
				<v:ud v:nameU="visAltDescription" v:prompt="" v:val="VT4(User Icon.)"/>
				<v:ud v:nameU="Font" v:prompt="" v:val="VT0(243):26"/>
			</v:userDefs>
			<title>User</title>
			<g id="group17-49" v:mID="17" v:groupContext="group" v:layerMember="1">
				<title>Sheet.17</title>
				<g id="shape18-50" v:mID="18" v:groupContext="shape" v:layerMember="1" transform="translate(5.75,-12.7059)">
					<title>Sheet.18</title>
					<ellipse cx="5.75" cy="209.887" rx="5.75" ry="5.64706" class="st11"/>
				</g>
				<g id="shape19-52" v:mID="19" v:groupContext="shape" v:layerMember="1">
					<title>Sheet.19</title>
					<path d="M23 215.53 L23 209.89 C23 209.04 22.57 208.19 21.85 207.63 C20.27 206.36 18.26 205.51 16.24 204.95 C14.81
								 204.52 13.22 204.24 11.5 204.24 C9.92 204.24 8.34 204.52 6.76 204.95 C4.74 205.51 2.73 206.5 1.15
								 207.63 C0.43 208.19 0 209.04 0 209.89 L0 215.53 L23 215.53 Z" class="st11"/>
				</g>
			</g>
		</g>
		<g id="group20-54" transform="translate(142.922,-191.409)" v:mID="20" v:groupContext="group" v:layerMember="1">
			<v:userDefs>
				<v:ud v:nameU="visVersion" v:prompt="" v:val="VT0(17):26"/>
				<v:ud v:nameU="visAltText" v:prompt="" v:val="VT4(Script)"/>
				<v:ud v:nameU="visAltDescription" v:prompt="" v:val="VT4(Script Icon.)"/>
				<v:ud v:nameU="Font" v:prompt="" v:val="VT0(243):26"/>
			</v:userDefs>
			<title>Script</title>
			<g id="shape21-55" v:mID="21" v:groupContext="shape" v:layerMember="1">
				<title>Sheet.21</title>
				<path d="M21.88 212.71 C21.88 213.1 21.56 213.42 21.18 213.42 C20.79 213.42 20.47 213.1 20.47 212.71 L20.47 195.77
							 L21.88 195.77 L21.88 212.71 ZM2.82 213.42 C2.44 213.42 2.12 213.1 2.12 212.71 L2.12 193.65 L18.35 193.65
							 L18.35 212.71 C18.35 212.96 18.39 213.21 18.46 213.42 L2.82 213.42 ZM20.47 193.65 L20.47 191.53 L0 191.53
							 L0 212.71 C0 214.26 1.27 215.53 2.82 215.53 L21.18 215.53 C22.73 215.53 24 214.26 24 212.71 L24 193.65
							 L20.47 193.65 Z" class="st11"/>
			</g>
			<g id="shape22-57" v:mID="22" v:groupContext="shape" v:layerMember="1" transform="translate(3.52941,-18.3529)">
				<title>Sheet.22</title>
				<rect x="0" y="214.123" width="13.4118" height="1.41176" class="st11"/>
			</g>
			<g id="shape23-59" v:mID="23" v:groupContext="shape" v:layerMember="1" transform="translate(10.9412,-15.5294)">
				<title>Sheet.23</title>
				<rect x="0" y="214.123" width="6" height="1.41176" class="st11"/>
			</g>
			<g id="shape24-61" v:mID="24" v:groupContext="shape" v:layerMember="1" transform="translate(10.9412,-12.7059)">
				<title>Sheet.24</title>
				<rect x="0" y="214.123" width="6" height="1.41176" class="st11"/>
			</g>
			<g id="shape25-63" v:mID="25" v:groupContext="shape" v:layerMember="1" transform="translate(3.52941,-12.7059)">
				<title>Sheet.25</title>
				<rect x="0" y="211.299" width="6" height="4.23529" class="st11"/>
			</g>
			<g id="shape26-65" v:mID="26" v:groupContext="shape" v:layerMember="1" transform="translate(3.52941,-9.88235)">
				<title>Sheet.26</title>
				<rect x="0" y="214.123" width="13.4118" height="1.41176" class="st11"/>
			</g>
			<g id="shape27-67" v:mID="27" v:groupContext="shape" v:layerMember="1" transform="translate(10.9412,-4.23529)">
				<title>Sheet.27</title>
				<rect x="0" y="211.299" width="6" height="4.23529" class="st11"/>
			</g>
			<g id="shape28-69" v:mID="28" v:groupContext="shape" v:layerMember="1" transform="translate(3.52941,-7.05882)">
				<title>Sheet.28</title>
				<rect x="0" y="214.123" width="6" height="1.41176" class="st11"/>
			</g>
			<g id="shape29-71" v:mID="29" v:groupContext="shape" v:layerMember="1" transform="translate(3.52941,-4.23529)">
				<title>Sheet.29</title>
				<rect x="0" y="214.123" width="6" height="1.41176" class="st11"/>
			</g>
		</g>
		<g id="group30-73" transform="translate(241.563,-159.959)" v:mID="30" v:groupContext="group">
			<v:userDefs>
				<v:ud v:nameU="visVersion" v:prompt="" v:val="VT0(15):26"/>
				<v:ud v:nameU="ShowActor" v:prompt="" v:val="VT0(0):5"/>
				<v:ud v:nameU="ShowDestruction" v:prompt="" v:val="VT0(0):5"/>
			</v:userDefs>
			<title>Object lifeline.30</title>
			<desc>ZMQ</desc>
			<g id="shape31-74" v:mID="31" v:groupContext="shape" transform="translate(8.50394,0)">
				<title>Sheet.31</title>
				<rect x="0" y="190.023" width="51.0236" height="25.5118" class="st1"/>
			</g>
			<g id="shape32-76" v:mID="32" v:groupContext="shape" transform="translate(25.5118,-29.0551)">
				<title>Sheet.32</title>
				<path d="M8.5 215.53 a0 0 0 1 1 0 0 a0 0 0 1 1 0 0 Z" class="st1"/>
			</g>
			<g id="shape33-78" v:mID="33" v:groupContext="shape" transform="translate(22.6772,158.258)">
				<title>Sheet.33</title>
			</g>
			<g id="shape34-80" v:mID="34" v:groupContext="shape" transform="translate(249.55,215.534) rotate(90)">
				<title>Sheet.34</title>
				<path d="M0 215.53 L140.64 215.53" class="st2"/>
			</g>
			<g id="shape30-83" v:mID="30" v:groupContext="groupContent">
				<v:textBlock v:margins="rect(4,4,4,4)" v:tabSpace="42.5197"/>
				<v:textRect cx="34.0157" cy="202.779" width="68.04" height="25.5118"/>
				<rect x="0" y="190.023" width="68.0315" height="25.5118" class="st1"/>
				<text x="25.86" y="205.18" class="st3" v:langID="1033"><v:paragraph v:horizAlign="1"/><v:tabList/>ZMQ</text>			</g>
		</g>
		<g id="group35-86" transform="translate(263.579,-191.409)" v:mID="35" v:groupContext="group" v:layerMember="1">
			<v:userDefs>
				<v:ud v:nameU="visVersion" v:prompt="" v:val="VT0(17):26"/>
				<v:ud v:nameU="visAltText" v:prompt="" v:val="VT4(Script)"/>
				<v:ud v:nameU="visAltDescription" v:prompt="" v:val="VT4(Script Icon.)"/>
				<v:ud v:nameU="Font" v:prompt="" v:val="VT0(243):26"/>
			</v:userDefs>
			<title>Script.35</title>
			<g id="shape36-87" v:mID="36" v:groupContext="shape" v:layerMember="1">
				<title>Sheet.36</title>
				<path d="M21.88 212.71 C21.88 213.1 21.56 213.42 21.18 213.42 C20.79 213.42 20.47 213.1 20.47 212.71 L20.47 195.77
							 L21.88 195.77 L21.88 212.71 ZM2.82 213.42 C2.44 213.42 2.12 213.1 2.12 212.71 L2.12 193.65 L18.35 193.65
							 L18.35 212.71 C18.35 212.96 18.39 213.21 18.46 213.42 L2.82 213.42 ZM20.47 193.65 L20.47 191.53 L0 191.53
							 L0 212.71 C0 214.26 1.27 215.53 2.82 215.53 L21.18 215.53 C22.73 215.53 24 214.26 24 212.71 L24 193.65
							 L20.47 193.65 Z" class="st11"/>
			</g>
			<g id="shape37-89" v:mID="37" v:groupContext="shape" v:layerMember="1" transform="translate(3.52941,-18.3529)">
				<title>Sheet.37</title>
				<rect x="0" y="214.123" width="13.4118" height="1.41176" class="st11"/>
			</g>
			<g id="shape38-91" v:mID="38" v:groupContext="shape" v:layerMember="1" transform="translate(10.9412,-15.5294)">
				<title>Sheet.38</title>
				<rect x="0" y="214.123" width="6" height="1.41176" class="st11"/>
			</g>
			<g id="shape39-93" v:mID="39" v:groupContext="shape" v:layerMember="1" transform="translate(10.9412,-12.7059)">
				<title>Sheet.39</title>
				<rect x="0" y="214.123" width="6" height="1.41176" class="st11"/>
			</g>
			<g id="shape40-95" v:mID="40" v:groupContext="shape" v:layerMember="1" transform="translate(3.52941,-12.7059)">
				<title>Sheet.40</title>
				<rect x="0" y="211.299" width="6" height="4.23529" class="st11"/>
			</g>
			<g id="shape41-97" v:mID="41" v:groupContext="shape" v:layerMember="1" transform="translate(3.52941,-9.88235)">
				<title>Sheet.41</title>
				<rect x="0" y="214.123" width="13.4118" height="1.41176" class="st11"/>
			</g>
			<g id="shape42-99" v:mID="42" v:groupContext="shape" v:layerMember="1" transform="translate(10.9412,-4.23529)">
				<title>Sheet.42</title>
				<rect x="0" y="211.299" width="6" height="4.23529" class="st11"/>
			</g>
			<g id="shape43-101" v:mID="43" v:groupContext="shape" v:layerMember="1" transform="translate(3.52941,-7.05882)">
				<title>Sheet.43</title>
				<rect x="0" y="214.123" width="6" height="1.41176" class="st11"/>
			</g>
			<g id="shape44-103" v:mID="44" v:groupContext="shape" v:layerMember="1" transform="translate(3.52941,-4.23529)">
				<title>Sheet.44</title>
				<rect x="0" y="214.123" width="6" height="1.41176" class="st11"/>
			</g>
		</g>
		<g id="shape45-105" v:mID="45" v:groupContext="shape" transform="translate(305.609,163.562) rotate(-89.9458)">
			<title>Activation.45</title>
			<v:userDefs>
				<v:ud v:nameU="visVersion" v:prompt="" v:val="VT0(15):26"/>
			</v:userDefs>
			<rect x="0" y="207.031" width="84.1232" height="8.50394" class="st4"/>
		</g>
		<g id="shape46-107" v:mID="46" v:groupContext="shape" v:layerMember="0" transform="translate(159.289,-143.079)">
			<title>Message.46</title>
			<desc>Read from redis</desc>
			<v:userDefs>
				<v:ud v:nameU="IsReturn" v:prompt="" v:val="VT0(0):5"/>
				<v:ud v:nameU="IsAsync" v:prompt="" v:val="VT0(0):5"/>
				<v:ud v:nameU="IsSelfMessage" v:prompt="" v:val="VT0(0):5"/>
				<v:ud v:nameU="visVersion" v:prompt="" v:val="VT0(15):26"/>
			</v:userDefs>
			<v:textBlock v:margins="rect(4,4,4,4)" v:tabSpace="42.5197"/>
			<v:textRect cx="176.715" cy="222.621" width="61.57" height="17.6036"/>
			<path d="M0 222.53 L344.95 222.71" class="st5"/>
			<rect v:rectContext="textBkgnd" x="150.838" y="217.821" width="51.7536" height="9.59985" class="st7"/>
			<text x="150.84" y="225.02" class="st8" v:langID="1033"><v:paragraph v:horizAlign="1"/><v:tabList/>Read from redis</text>		</g>
		<g id="shape47-114" v:mID="47" v:groupContext="shape" v:layerMember="0" transform="translate(516.892,-44.8563)">
			<title>Return Message.47</title>
			<desc>Return result</desc>
			<v:userDefs>
				<v:ud v:nameU="IsReturn" v:prompt="" v:val="VT0(1):5"/>
				<v:ud v:nameU="IsAsync" v:prompt="" v:val="VT0(0):5"/>
				<v:ud v:nameU="IsSelfMessage" v:prompt="" v:val="VT0(0):5"/>
				<v:ud v:nameU="visVersion" v:prompt="" v:val="VT0(15):26"/>
			</v:userDefs>
			<v:textBlock v:margins="rect(4,4,4,4)" v:tabSpace="42.5197"/>
			<v:textRect cx="-178.867" cy="208.448" width="52.44" height="17.6036"/>
			<path d="M0 208.62 L-357.73 208.28" class="st10"/>
			<rect v:rectContext="textBkgnd" x="-200.179" y="203.648" width="42.6245" height="9.59985" class="st7"/>
			<text x="-200.18" y="210.85" class="st8" v:langID="2052"><v:paragraph v:horizAlign="1"/><v:tabList/>Return result</text>		</g>
		<g id="group51-121" transform="translate(362.219,-159.959)" v:mID="51" v:groupContext="group">
			<v:userDefs>
				<v:ud v:nameU="visVersion" v:prompt="" v:val="VT0(15):26"/>
				<v:ud v:nameU="ShowActor" v:prompt="" v:val="VT0(0):5"/>
				<v:ud v:nameU="ShowDestruction" v:prompt="" v:val="VT0(0):5"/>
			</v:userDefs>
			<title>Object lifeline.51</title>
			<desc>Orchagent</desc>
			<g id="shape52-122" v:mID="52" v:groupContext="shape" transform="translate(8.50394,0)">
				<title>Sheet.52</title>
				<rect x="0" y="190.023" width="51.0236" height="25.5118" class="st1"/>
			</g>
			<g id="shape53-124" v:mID="53" v:groupContext="shape" transform="translate(25.5118,-29.0551)">
				<title>Sheet.53</title>
				<path d="M8.5 215.53 a0 0 0 1 1 0 0 a0 0 0 1 1 0 0 Z" class="st1"/>
			</g>
			<g id="shape54-126" v:mID="54" v:groupContext="shape" transform="translate(22.6772,159.959)">
				<title>Sheet.54</title>
			</g>
			<g id="shape55-128" v:mID="55" v:groupContext="shape" transform="translate(249.55,215.534) rotate(90)">
				<title>Sheet.55</title>
				<path d="M0 215.53 L142.34 215.53" class="st2"/>
			</g>
			<g id="shape51-131" v:mID="51" v:groupContext="groupContent">
				<v:textBlock v:margins="rect(4,4,4,4)" v:tabSpace="42.5197"/>
				<v:textRect cx="34.0157" cy="202.779" width="68.04" height="25.5118"/>
				<rect x="0" y="190.023" width="68.0315" height="25.5118" class="st1"/>
				<text x="16.65" y="205.18" class="st3" v:langID="1033"><v:paragraph v:horizAlign="1"/><v:tabList/>Orchagent</text>			</g>
		</g>
		<g id="group76-134" transform="translate(482.876,-159.773)" v:mID="76" v:groupContext="group">
			<v:userDefs>
				<v:ud v:nameU="visVersion" v:prompt="" v:val="VT0(15):26"/>
				<v:ud v:nameU="ShowActor" v:prompt="" v:val="VT0(0):5"/>
				<v:ud v:nameU="ShowDestruction" v:prompt="" v:val="VT0(0):5"/>
			</v:userDefs>
			<title>Object lifeline.76</title>
			<desc>APPL_DB</desc>
			<g id="shape77-135" v:mID="77" v:groupContext="shape" transform="translate(8.50394,0)">
				<title>Sheet.77</title>
				<rect x="0" y="190.023" width="51.0236" height="25.5118" class="st1"/>
			</g>
			<g id="shape78-137" v:mID="78" v:groupContext="shape" transform="translate(25.5118,-29.0551)">
				<title>Sheet.78</title>
				<path d="M8.5 215.53 a0 0 0 1 1 0 0 a0 0 0 1 1 0 0 Z" class="st1"/>
			</g>
			<g id="shape79-139" v:mID="79" v:groupContext="shape" transform="translate(22.6772,156.371)">
				<title>Sheet.79</title>
			</g>
			<g id="shape80-141" v:mID="80" v:groupContext="shape" transform="translate(249.55,215.534) rotate(90)">
				<title>Sheet.80</title>
				<path d="M0 215.53 L138.76 215.53" class="st2"/>
			</g>
			<g id="shape76-144" v:mID="76" v:groupContext="groupContent">
				<v:textBlock v:margins="rect(4,4,4,4)" v:tabSpace="42.5197"/>
				<v:textRect cx="34.0157" cy="202.779" width="68.04" height="25.5118"/>
				<rect x="0" y="190.023" width="68.0315" height="25.5118" class="st1"/>
				<text x="18.89" y="205.18" class="st3" v:langID="1033"><v:paragraph v:horizAlign="1"/><v:tabList/>APPL_DB</text>			</g>
		</g>
		<g id="group97-147" transform="translate(507.892,-191.409)" v:mID="97" v:groupContext="group" v:layerMember="1">
			<v:userDefs>
				<v:ud v:nameU="visVersion" v:prompt="" v:val="VT0(17):26"/>
				<v:ud v:nameU="visAltText" v:prompt="" v:val="VT4(Database)"/>
				<v:ud v:nameU="visAltDescription" v:prompt="" v:val="VT4(Database Icon.)"/>
				<v:ud v:nameU="Font" v:prompt="" v:val="VT0(243):26"/>
			</v:userDefs>
			<title>Database</title>
			<g id="group98-148" v:mID="98" v:groupContext="group" v:layerMember="1">
				<title>Sheet.98</title>
				<g id="shape99-149" v:mID="99" v:groupContext="shape" v:layerMember="1" transform="translate(0,-18.9474)">
					<title>Sheet.99</title>
					<ellipse cx="9" cy="213.008" rx="9" ry="2.52632" class="st11"/>
				</g>
				<g id="shape100-151" v:mID="100" v:groupContext="shape" v:layerMember="1" transform="translate(0,-12.6316)">
					<title>Sheet.100</title>
					<path d="M15.43 213.01 C15.04 213.01 14.79 212.76 14.79 212.38 C14.79 212 15.04 211.74 15.43 211.74 C15.81 211.74
								 16.07 212 16.07 212.38 C16.07 212.76 15.81 213.01 15.43 213.01 ZM9 210.48 C4.05 210.48 0 209.34
								 0 207.96 L0 213.01 C0 214.4 4.05 215.53 9 215.53 C13.95 215.53 18 214.4 18 213.01 L18 207.96 C18
								 209.34 13.95 210.48 9 210.48 Z" class="st11"/>
				</g>
				<g id="shape101-153" v:mID="101" v:groupContext="shape" v:layerMember="1" transform="translate(0,-6.31579)">
					<title>Sheet.101</title>
					<path d="M15.43 213.01 C15.04 213.01 14.79 212.76 14.79 212.38 C14.79 212 15.04 211.74 15.43 211.74 C15.81 211.74
								 16.07 212 16.07 212.38 C16.07 212.76 15.81 213.01 15.43 213.01 ZM9 210.48 C4.05 210.48 0 209.34
								 0 207.96 L0 213.01 C0 214.4 4.05 215.53 9 215.53 C13.95 215.53 18 214.4 18 213.01 L18 207.96 C18
								 209.34 13.95 210.48 9 210.48 Z" class="st11"/>
				</g>
				<g id="shape102-155" v:mID="102" v:groupContext="shape" v:layerMember="1">
					<title>Sheet.102</title>
					<path d="M15.43 213.01 C15.04 213.01 14.79 212.76 14.79 212.38 C14.79 212 15.04 211.74 15.43 211.74 C15.81 211.74
								 16.07 212 16.07 212.38 C16.07 212.76 15.81 213.01 15.43 213.01 ZM9 210.48 C4.05 210.48 0 209.34
								 0 207.96 L0 213.01 C0 214.4 4.05 215.53 9 215.53 C13.95 215.53 18 214.4 18 213.01 L18 207.96 C18
								 209.34 13.95 210.48 9 210.48 Z" class="st11"/>
				</g>
			</g>
		</g>
		<g id="group132-157" transform="translate(384.235,-191.409)" v:mID="132" v:groupContext="group" v:layerMember="1">
			<v:userDefs>
				<v:ud v:nameU="visVersion" v:prompt="" v:val="VT0(17):26"/>
				<v:ud v:nameU="visAltText" v:prompt="" v:val="VT4(Script)"/>
				<v:ud v:nameU="visAltDescription" v:prompt="" v:val="VT4(Script Icon.)"/>
				<v:ud v:nameU="Font" v:prompt="" v:val="VT0(243):26"/>
			</v:userDefs>
			<title>Script.132</title>
			<g id="shape133-158" v:mID="133" v:groupContext="shape" v:layerMember="1">
				<title>Sheet.133</title>
				<path d="M21.88 212.71 C21.88 213.1 21.56 213.42 21.18 213.42 C20.79 213.42 20.47 213.1 20.47 212.71 L20.47 195.77
							 L21.88 195.77 L21.88 212.71 ZM2.82 213.42 C2.44 213.42 2.12 213.1 2.12 212.71 L2.12 193.65 L18.35 193.65
							 L18.35 212.71 C18.35 212.96 18.39 213.21 18.46 213.42 L2.82 213.42 ZM20.47 193.65 L20.47 191.53 L0 191.53
							 L0 212.71 C0 214.26 1.27 215.53 2.82 215.53 L21.18 215.53 C22.73 215.53 24 214.26 24 212.71 L24 193.65
							 L20.47 193.65 Z" class="st11"/>
			</g>
			<g id="shape134-160" v:mID="134" v:groupContext="shape" v:layerMember="1" transform="translate(3.52941,-18.3529)">
				<title>Sheet.134</title>
				<rect x="0" y="214.123" width="13.4118" height="1.41176" class="st11"/>
			</g>
			<g id="shape135-162" v:mID="135" v:groupContext="shape" v:layerMember="1" transform="translate(10.9412,-15.5294)">
				<title>Sheet.135</title>
				<rect x="0" y="214.123" width="6" height="1.41176" class="st11"/>
			</g>
			<g id="shape136-164" v:mID="136" v:groupContext="shape" v:layerMember="1" transform="translate(10.9412,-12.7059)">
				<title>Sheet.136</title>
				<rect x="0" y="214.123" width="6" height="1.41176" class="st11"/>
			</g>
			<g id="shape137-166" v:mID="137" v:groupContext="shape" v:layerMember="1" transform="translate(3.52941,-12.7059)">
				<title>Sheet.137</title>
				<rect x="0" y="211.299" width="6" height="4.23529" class="st11"/>
			</g>
			<g id="shape138-168" v:mID="138" v:groupContext="shape" v:layerMember="1" transform="translate(3.52941,-9.88235)">
				<title>Sheet.138</title>
				<rect x="0" y="214.123" width="13.4118" height="1.41176" class="st11"/>
			</g>
			<g id="shape139-170" v:mID="139" v:groupContext="shape" v:layerMember="1" transform="translate(10.9412,-4.23529)">
				<title>Sheet.139</title>
				<rect x="0" y="211.299" width="6" height="4.23529" class="st11"/>
			</g>
			<g id="shape140-172" v:mID="140" v:groupContext="shape" v:layerMember="1" transform="translate(3.52941,-7.05882)">
				<title>Sheet.140</title>
				<rect x="0" y="214.123" width="6" height="1.41176" class="st11"/>
			</g>
			<g id="shape141-174" v:mID="141" v:groupContext="shape" v:layerMember="1" transform="translate(3.52941,-4.23529)">
				<title>Sheet.141</title>
				<rect x="0" y="214.123" width="6" height="1.41176" class="st11"/>
			</g>
		</g>
	</g>
</svg>
